<svg xmlns="http://www.w3.org/2000/svg" fill="none" viewBox="0 0 22 22"><path fill="#0266C1" d="M20.72 14.24c.62-2.1.1-4.47-.44-6.12a15 15 0 0 0-.55-1.47c.27-.11.44-.4.45-.7v-3.19c0-.42-.32-.76-.71-.76h-8.73c-.2 0-.35.17-.35.38v.03c.12 2.29-.04 3.84-.5 4.94l-.02.04v.05q-.26.6-.68 1.08l-.04.03v.02q-.63.65-1.42 1.04-1.37.64-2.8 1.12l-.18.07c-3.32 1.18-3.76 3.33-3.75 4.4v2.78q.01.21.17.33 1.23.8 2.61 1.21c.19.06.39-.06.44-.26l.01-.12v-.09h.52v.38c0 .2.13.36.3.39q.47.08.92.12.16 0 .27-.1a.4.4 0 0 0 .12-.28v-.48h.52v.54c0 .2.16.38.35.38q.45.01.92-.05c.18-.01.33-.18.33-.38v-.5h.52v.34c0 .21.15.39.35.39h.06q.98-.17 1.92-.5l.06-.03c2.48-1.53 4.06-.27 4.12-.21q.1.08.22.08h.44c.2 0 .36-.18.36-.39v-.64h.5v.64c0 .2.16.38.36.38h1.14c.2 0 .36-.17.36-.38v-.64h.52v.64c0 .2.16.38.36.38h.87c.2 0 .36-.17.36-.38v-4.12a.4.4 0 0 0-.28-.39m-8.43-11.47h7.16v3.17h-7.16zm-4.46 7.62v.03q.44.38.8.84a1 1 0 0 0-.1.38c0 .4.3.74.68.74.37 0 .68-.32.68-.73 0-.38-.26-.7-.62-.73a6 6 0 0 0-.76-.9q.48-.3.9-.68.51.52.95 1.12c-.12.38.06.8.42.93.35.13.74-.07.86-.45s-.06-.8-.42-.93l-.22-.04h-.09q-.47-.64-1.01-1.2.24-.33.44-.71.82.46 1.6 1.03c-.01.4.3.74.67.75.38 0 .7-.33.7-.74s-.3-.74-.68-.74q-.17 0-.32.08-.8-.6-1.67-1.07c.39-1.1.56-2.58.48-4.58h.46v3.16c0 .42.32.77.71.77h6.66q.15.31.42 1.01h-.15c-2.16.02-3.9 1.91-3.88 4.23.01 1.32.6 2.56 1.58 3.35-2.87.81-7.2 1.78-10.83 1.53.67-2.89-.13-4.66-.65-5.44q1.2-.45 2.39-1m-3.1 1.22c.38.49 1.38 2.12.64 5.12a8.5 8.5 0 0 1-3.64-1.18l-.03-.27v-.02c-.02-.82.26-2.58 3.02-3.65m15.4 6.75v-.63c0-.22-.17-.39-.36-.39h-1.23c-.2 0-.36.17-.36.39v.63h-.44v-.63c0-.22-.16-.39-.35-.39h-1.23c-.2 0-.35.17-.35.39v.62c-.49-.33-2.25-1.27-4.75.24q-.67.23-1.36.38v-.27c0-.2-.16-.38-.36-.38h-1.22c-.2 0-.36.17-.36.38v.53h-.18v-.54c0-.2-.16-.38-.35-.38h-1.24c-.2 0-.35.17-.35.38v.46l-.18-.03v-.43c0-.2-.16-.38-.36-.38h-1.23c-.18 0-.33.14-.36.34a9 9 0 0 1-1.8-.88v-1.37c1.54.89 3.54 1.22 5.68 1.22 5.66 0 12.13-2.33 12.9-2.61v3.35zm-.18-4.03c-.3.1-1.05.38-2.07.68a3.56 3.56 0 0 1-1.49-4.6 3.2 3.2 0 0 1 3.25-1.92v.02c.52 1.62 1 3.93.3 5.82"/><path fill="#0266C1" d="M13.66 3.23c-.57 0-1.04.5-1.04 1.12 0 .61.47 1.1 1.04 1.1s1.03-.49 1.03-1.1-.46-1.12-1.03-1.12m0 1.46c-.18 0-.33-.15-.33-.34s.15-.35.33-.35c.17 0 .32.15.32.35s-.15.34-.32.34"/></svg>